<svg height="512" viewBox="0 0 60 60" width="512" xmlns="http://www.w3.org/2000/svg"><g id="095---Left-Arrows" fill="none"><g id="Icons"><path id="Shape" d="m50.81 33.87c-.0311385-.0936065-.0479944-.1913706-.05-.29-.0030234-.112094.0139067-.2238328.05-.33l8.14-23.85c.1376695-.38316653.0124338-.81139197-.31-1.06l-.08-.07-6.38-5.81-.08-.07c-.159367-.16999155-.3819872-.26643777-.615-.26643777s-.455633.09644622-.615.26643777l-22.579 22.478 5.659-16.588c.1376695-.38316653.0124338-.81139197-.31-1.06l-.08-.07-6.45-5.88-.01-.01c-.1605444-.16785999-.3827254-.26280275-.615-.26280275s-.4544556.09494276-.615.26280275l-24.58 24.48c-.18712306.184867-.29243945.4369584-.29243945.7s.10531639.515133.29243945.7l24.58 24.47 6.61 6c.3135065.2907674.7867043.3253217 1.1391252.0831822.3524208-.2421395.4898677-.6962524.3308748-1.0931822l-8.14-23.85c-.0311385-.0936065-.0479944-.1913706-.05-.29-.0030234-.112094.0139067-.2238328.05-.33l1.108-3.245 23.952 23.845 6.61 6c.3135065.2907674.7867043.3253217 1.1391252.0831822.3524208-.2421395.4898677-.6962524.3308748-1.0931822z" fill="#e64c3c"/><path id="Shape" d="m25.87 51.61-24.58-24.47c-.18712306-.184867-.29243945-.4369584-.29243945-.7s.10531639-.515133.29243945-.7l24.58-24.48c.1605444-.16785999.3827254-.26280275.615-.26280275s.4544556.09494276.615.26280275l.01.01c.2639563.26473187.353303.65708037.23 1.01l-8.14 23.85c-.0335111.1031637-.0470859.2117617-.04.32-.0014823.1014224.0119959.2025092.04.3l8.14 23.85c.1614058.3972693.0245952.8533304-.3288292 1.0961594-.3534245.242829-.8282126.2069821-1.1411708-.0861594z" fill="#f44335"/><path id="Shape" d="m33.95 8.28-5.66 16.59-1.37 4.01-1.11 3.25c-.0360933.1061672-.0530234.217906-.05.33l-6.6-6.01c-.0070859-.1082383.0064889-.2168363.04-.32l8.14-23.85c.123303-.35291963.0339563-.74526813-.23-1.01l6.45 5.88.08.07c.3224338.24860803.4476695.67683347.31 1.06z" fill="#c81e1e"/><path id="Shape" d="m32.48 57.61-6.61-6c.3129582.2931415.7877463.3289884 1.1411708.0861594.3534244-.242829.490235-.6988901.3288292-1.0961594l-8.14-23.85c-.0280041-.0974908-.0414823-.1985776-.0401102-.3l6.6001102 6.01c.0020056.0986294.0188615.1963935.05.29l8.14 23.85c.1589929.3969298.021546.8510427-.3308748 1.0931822-.3524209.2421395-.8256187.2075852-1.1391252-.0831822z" fill="#c81e1e"/><path id="Shape" d="m50.87 52.73-24.58-24.47c-.1871231-.184867-.2924394-.4369584-.2924394-.7s.1053163-.515133.2924394-.7l24.58-24.47c.159367-.16999155.3819872-.26643777.615-.26643777s.455633.09644622.615.26643777l.08.07c.2117246.26483952.2721821.62002744.16.94l-8.14 23.85c-.0335111.1031637-.0470859.2117617-.04.32-.0014823.1014224.0119959.2025092.04.3l8.14 23.85c.1638906.3976117.0277376.8556827-.3267236 1.0992241s-.8308898.2063597-1.1432764-.0892241z" fill="#f44335"/><g fill="#c81e1e"><path id="Shape" d="m58.95 9.4-8.14 23.85c-.0360933.1061672-.0530234.217906-.05.33l-2.97-2.7-3.63-3.31c-.0070859-.1082383.0064889-.2168363.04-.32l8.14-23.85c.0567087-.15686171.0705174-.32601779.04-.49-.0290307-.16404742-.0976864-.31852273-.2-.45l6.38 5.81.08.07c.3224338.24860803.4476695.67683347.31 1.06z"/><path id="Shape" d="m57.48 58.73-6.61-6c.3123866.2955838.7888152.3327655 1.1432764.0892241s.4906142-.7016124.3267236-1.0992241l-8.14-23.85c-.0280041-.0974908-.0414823-.1985776-.0401102-.3l6.6001102 6.01c.0020056.0986294.0188615.1963935.05.29l8.14 23.85c.1589929.3969298.021546.8510427-.3308748 1.0931822-.3524209.2421395-.8256187.2075852-1.1391252-.0831822z"/></g></g><path id="Shape" d="m60.305 7.6c-7.216-6.573-6.653-6.079-6.843-6.2-.7338657-.45833245-1.6879192-.34344642-2.292.276l-19.549 19.459 4.284-12.559c.2572895-.75663425.0181847-1.59350124-.6-2.1-7.241-6.595-6.654-6.076-6.843-6.196-.7341758-.45848577-1.6885902-.3436064-2.293.276l-24.588 24.472c-.77544719.7800749-.77544719 2.0399251 0 2.82 30.125 29.983 21.843 21.981 31.192 30.469.641385.6256154 1.6310637.722256 2.3813596.2325362.7502958-.4897198 1.0601795-1.4345877.7456404-2.2735362l-8.14-23.823.59-1.725c27.671 27.544 20.65 20.747 29.423 28.712.6419098.6226887 1.6294571.7178611 2.3784687.2292191.7490115-.488642 1.059804-1.4308286.7485313-2.2692191l-8.14-23.824 8.145-23.876c.2588083-.75659598.019454-1.59433611-.6-2.1zm-8.013-4.216-8.039 23.557c-.1298569.408867-.1281081.8481798.005 1.256l8.034 23.543-24.3-24.171zm-25-1.123-8.04 23.557c-.1310339.4087419-.128933.8485287.006 1.256l8.034 23.541-24.301-24.169zm6.666 54.432-5-4.537c.4180938-.5262889.5429069-1.2277989.332-1.866l-7.021-20.568 3.579 3.26c.122.426.885 2.627 8.11 23.711zm-7.7-26.042-4.992-4.546 7.734-22.665 4.993 4.544-5.572 16.335-1.841 1.833c-.7747847.7799581-.7747847 2.0390419 0 2.819l.188.187zm32.7 27.164-5-4.536c.4189519-.5258735.5441926-1.227673.333-1.866l-7.023-20.568 3.569 3.249c.201.72-.786-2.268 8.121 23.721zm-7.7-26.041-4.99-4.545 7.732-22.666 4.991 4.545z" fill="#000" transform="translate(-1)"/></g></svg>