<svg id="home" xmlns="http://www.w3.org/2000/svg" width="60.32" height="60.326" viewBox="0 0 60.32 60.326">
  <path id="Trazado_1" data-name="Trazado 1" d="M58.7,26.239l0,0L34.087,1.627a5.552,5.552,0,0,0-7.854,0L1.638,26.222l-.025.025a5.551,5.551,0,0,0,3.7,9.462c.057.006.114.008.172.008h.98v18.11a6.507,6.507,0,0,0,6.5,6.5h9.628a1.767,1.767,0,0,0,1.767-1.767v-14.2A2.969,2.969,0,0,1,27.321,41.4H33a2.969,2.969,0,0,1,2.965,2.965v14.2a1.768,1.768,0,0,0,1.767,1.767H47.36a6.507,6.507,0,0,0,6.5-6.5V35.717h.909a5.554,5.554,0,0,0,3.93-9.478Zm0,0" transform="translate(0 0)" fill="#1de8f1"/>
  <path id="Trazado_2" data-name="Trazado 2" d="M284.512,26.239l0,0L259.9,1.627A5.516,5.516,0,0,0,255.973,0h0V41.4h2.84a2.969,2.969,0,0,1,2.965,2.965v14.2a1.768,1.768,0,0,0,1.767,1.767h9.628a6.507,6.507,0,0,0,6.5-6.5V35.717h.909a5.554,5.554,0,0,0,3.93-9.478Zm0,0" transform="translate(-225.813 0)" fill="#00c7ce"/>
</svg>
